<mxfile host="app.diagrams.net" modified="2024-05-17T04:56:42.267Z" agent="Mozilla/5.0 (Windows NT 10.0; Win64; x64) AppleWebKit/537.36 (KHTML, like Gecko) Chrome/124.0.0.0 Safari/537.36" etag="eB4QcklaXRxsHcZf32g0" version="24.4.3" type="device">
  <diagram name="Page-1" id="3qr4SBGX-mOfIHM2qajs">
    <mxGraphModel dx="880" dy="468" grid="1" gridSize="10" guides="1" tooltips="1" connect="1" arrows="1" fold="1" page="1" pageScale="1" pageWidth="850" pageHeight="1100" math="0" shadow="0">
      <root>
        <mxCell id="0" />
        <mxCell id="1" parent="0" />
        <mxCell id="FcXNTftmjpfmOKiLNGz_-1" value="USER INPUT" style="rounded=0;whiteSpace=wrap;html=1;strokeColor=default;" vertex="1" parent="1">
          <mxGeometry x="40" y="90" width="120" height="60" as="geometry" />
        </mxCell>
        <mxCell id="FcXNTftmjpfmOKiLNGz_-6" style="edgeStyle=orthogonalEdgeStyle;rounded=0;orthogonalLoop=1;jettySize=auto;html=1;exitX=1;exitY=0.5;exitDx=0;exitDy=0;" edge="1" parent="1" source="FcXNTftmjpfmOKiLNGz_-2" target="FcXNTftmjpfmOKiLNGz_-3">
          <mxGeometry relative="1" as="geometry" />
        </mxCell>
        <mxCell id="FcXNTftmjpfmOKiLNGz_-2" value="COMPUTING&amp;nbsp;&lt;div&gt;UNIT&lt;/div&gt;" style="whiteSpace=wrap;html=1;aspect=fixed;" vertex="1" parent="1">
          <mxGeometry x="370" y="80" width="80" height="80" as="geometry" />
        </mxCell>
        <mxCell id="FcXNTftmjpfmOKiLNGz_-3" value="OUTPUT" style="rounded=0;whiteSpace=wrap;html=1;" vertex="1" parent="1">
          <mxGeometry x="670" y="90" width="120" height="60" as="geometry" />
        </mxCell>
        <mxCell id="FcXNTftmjpfmOKiLNGz_-7" value="START" style="rounded=1;whiteSpace=wrap;html=1;" vertex="1" parent="1">
          <mxGeometry x="360" y="240" width="120" height="60" as="geometry" />
        </mxCell>
        <mxCell id="FcXNTftmjpfmOKiLNGz_-15" style="edgeStyle=orthogonalEdgeStyle;rounded=0;orthogonalLoop=1;jettySize=auto;html=1;entryX=0.5;entryY=0;entryDx=0;entryDy=0;" edge="1" parent="1" source="FcXNTftmjpfmOKiLNGz_-8" target="FcXNTftmjpfmOKiLNGz_-9">
          <mxGeometry relative="1" as="geometry" />
        </mxCell>
        <mxCell id="FcXNTftmjpfmOKiLNGz_-8" value="USER INPUT" style="ellipse;whiteSpace=wrap;html=1;" vertex="1" parent="1">
          <mxGeometry x="360" y="360" width="120" height="80" as="geometry" />
        </mxCell>
        <mxCell id="FcXNTftmjpfmOKiLNGz_-9" value="ADD/COMPUTE" style="rounded=1;whiteSpace=wrap;html=1;" vertex="1" parent="1">
          <mxGeometry x="360" y="510" width="120" height="60" as="geometry" />
        </mxCell>
        <mxCell id="FcXNTftmjpfmOKiLNGz_-10" value="DISPLAY OUTPUT" style="rounded=1;whiteSpace=wrap;html=1;" vertex="1" parent="1">
          <mxGeometry x="360" y="640" width="120" height="60" as="geometry" />
        </mxCell>
        <mxCell id="FcXNTftmjpfmOKiLNGz_-11" value="END" style="rounded=1;whiteSpace=wrap;html=1;" vertex="1" parent="1">
          <mxGeometry x="360" y="760" width="120" height="60" as="geometry" />
        </mxCell>
        <mxCell id="FcXNTftmjpfmOKiLNGz_-13" value="" style="endArrow=classic;html=1;rounded=0;entryX=0.5;entryY=0;entryDx=0;entryDy=0;" edge="1" parent="1" source="FcXNTftmjpfmOKiLNGz_-7" target="FcXNTftmjpfmOKiLNGz_-8">
          <mxGeometry width="50" height="50" relative="1" as="geometry">
            <mxPoint x="340" y="400" as="sourcePoint" />
            <mxPoint x="390" y="350" as="targetPoint" />
          </mxGeometry>
        </mxCell>
        <mxCell id="FcXNTftmjpfmOKiLNGz_-16" value="" style="endArrow=classic;html=1;rounded=0;exitX=0.5;exitY=1;exitDx=0;exitDy=0;entryX=0.5;entryY=0;entryDx=0;entryDy=0;" edge="1" parent="1" source="FcXNTftmjpfmOKiLNGz_-9" target="FcXNTftmjpfmOKiLNGz_-10">
          <mxGeometry width="50" height="50" relative="1" as="geometry">
            <mxPoint x="340" y="530" as="sourcePoint" />
            <mxPoint x="390" y="480" as="targetPoint" />
            <Array as="points" />
          </mxGeometry>
        </mxCell>
        <mxCell id="FcXNTftmjpfmOKiLNGz_-18" value="" style="endArrow=classic;html=1;rounded=0;exitX=0.5;exitY=1;exitDx=0;exitDy=0;entryX=0.5;entryY=0;entryDx=0;entryDy=0;" edge="1" parent="1" source="FcXNTftmjpfmOKiLNGz_-10" target="FcXNTftmjpfmOKiLNGz_-11">
          <mxGeometry width="50" height="50" relative="1" as="geometry">
            <mxPoint x="340" y="830" as="sourcePoint" />
            <mxPoint x="390" y="780" as="targetPoint" />
          </mxGeometry>
        </mxCell>
        <mxCell id="FcXNTftmjpfmOKiLNGz_-19" value="" style="endArrow=classic;html=1;rounded=0;exitX=1;exitY=0.5;exitDx=0;exitDy=0;entryX=0;entryY=0.5;entryDx=0;entryDy=0;" edge="1" parent="1" source="FcXNTftmjpfmOKiLNGz_-1" target="FcXNTftmjpfmOKiLNGz_-2">
          <mxGeometry width="50" height="50" relative="1" as="geometry">
            <mxPoint x="340" y="230" as="sourcePoint" />
            <mxPoint x="390" y="180" as="targetPoint" />
          </mxGeometry>
        </mxCell>
      </root>
    </mxGraphModel>
  </diagram>
</mxfile>
